<svg xmlns="http://www.w3.org/2000/svg" viewBox="-90.3 -32.6 136.6 102.3" width="273" height="205">
<defs>
<radialGradient id="empire-bomber-glow"><stop offset="0" stop-color="#fff6d8"/><stop offset=".55" stop-color="#ffc46b"/><stop offset="1" stop-color="#c0602a"/></radialGradient>
<radialGradient id="empire-bomber-plume"><stop offset="0" stop-color="#ffc46b" stop-opacity=".75"/><stop offset=".5" stop-color="#c0602a" stop-opacity=".3"/><stop offset="1" stop-color="#c0602a" stop-opacity="0"/></radialGradient>
<g id="empire-bomber-craft"><ellipse cx="-45.4" cy="23.8" rx="9.6" ry="4.4" transform="rotate(147.3 -45.4 23.8)" fill="url(#empire-bomber-plume)"/><ellipse cx="-38.4" cy="30.1" rx="9.6" ry="4.4" transform="rotate(147.3 -38.4 30.1)" fill="url(#empire-bomber-plume)"/><polygon points="-6.3,-18.6 -5.5,-18.7 -0.4,-19.8 -0.4,-19.8" fill="#664a25" stroke="#664a25" stroke-width="0.35" stroke-linejoin="round"/><polygon points="-3.6,-16.2 -3.6,-15.2 -0.4,-19.8 -0.4,-19.8" fill="#7a592c" stroke="#7a592c" stroke-width="0.35" stroke-linejoin="round"/><polygon points="-5.5,-18.7 -4.4,-17.7 -0.4,-19.8 -0.4,-19.8" fill="#a1753b" stroke="#a1753b" stroke-width="0.35" stroke-linejoin="round"/><polygon points="-4.4,-17.7 -3.6,-16.2 -0.4,-19.8 -0.4,-19.8" fill="#ae8043" stroke="#ae8043" stroke-width="0.35" stroke-linejoin="round"/><polygon points="-23.1,-7.8 -22.3,-7.9 -5.5,-18.7 -6.3,-18.6" fill="#5d4422" stroke="#5d4422" stroke-width="0.35" stroke-linejoin="round"/><polygon points="-20.5,-5.4 -20.5,-4.3 -3.6,-15.2 -3.6,-16.2" fill="#72532a" stroke="#72532a" stroke-width="0.35" stroke-linejoin="round"/><polygon points="-22.3,-7.9 -21.3,-6.9 -4.4,-17.7 -5.5,-18.7" fill="#9d733b" stroke="#9d733b" stroke-width="0.35" stroke-linejoin="round"/><polygon points="-21.3,-6.9 -20.5,-5.4 -3.6,-16.2 -4.4,-17.7" fill="#b98c50" stroke="#b98c50" stroke-width="0.35" stroke-linejoin="round"/><polygon points="-24.9,-4.1 -24.9,-4.1 -21.3,-4.3 -20.5,-4.3" fill="#412f18" stroke="#412f18" stroke-width="0.35" stroke-linejoin="round"/><polygon points="-24.9,-4.1 -24.9,-4.1 -22.3,-7.9 -23.1,-7.8" fill="#4c371c" stroke="#4c371c" stroke-width="0.35" stroke-linejoin="round"/><polygon points="-24.9,-4.1 -24.9,-4.1 -20.5,-4.3 -20.5,-5.4" fill="#5f4522" stroke="#5f4522" stroke-width="0.35" stroke-linejoin="round"/><polygon points="-24.9,-4.1 -24.9,-4.1 -21.3,-6.9 -22.3,-7.9" fill="#836030" stroke="#836030" stroke-width="0.35" stroke-linejoin="round"/><polygon points="-24.9,-4.1 -24.9,-4.1 -20.5,-5.4 -21.3,-6.9" fill="#8f6a37" stroke="#8f6a37" stroke-width="0.35" stroke-linejoin="round"/><polygon points="22,7.2 22.8,7.1 27.9,6 27.9,6" fill="#664a25" stroke="#664a25" stroke-width="0.35" stroke-linejoin="round"/><polygon points="24.6,9.6 24.6,10.7 27.9,6 27.9,6" fill="#7a592c" stroke="#7a592c" stroke-width="0.35" stroke-linejoin="round"/><polygon points="22.8,7.1 23.9,8.1 27.9,6 27.9,6" fill="#a1753b" stroke="#a1753b" stroke-width="0.35" stroke-linejoin="round"/><polygon points="23.9,8.1 24.6,9.6 27.9,6 27.9,6" fill="#ae8043" stroke="#ae8043" stroke-width="0.35" stroke-linejoin="round"/><polygon points="5.2,18 5.9,18 22.8,7.1 22,7.2" fill="#5d4422" stroke="#5d4422" stroke-width="0.35" stroke-linejoin="round"/><polygon points="7.8,20.4 7.8,21.5 24.6,10.7 24.6,9.6" fill="#72532a" stroke="#72532a" stroke-width="0.35" stroke-linejoin="round"/><polygon points="-1.2,-9.5 -26.5,-18.3 -34.1,-13.4 -21.1,3.3" fill="#f2ecdd" stroke="#c79a3a" stroke-width="1.1" stroke-linejoin="round"/><polygon points="5.9,18 7,19 23.9,8.1 22.8,7.1" fill="#9d733b" stroke="#9d733b" stroke-width="0.35" stroke-linejoin="round"/><polygon points="7,19 7.8,20.4 24.6,9.6 23.9,8.1" fill="#b98c50" stroke="#b98c50" stroke-width="0.35" stroke-linejoin="round"/><polygon points="-34.1,-13.4 -21.1,3.3 -21.1,4.6 -34.1,-12.1" fill="#64625c" stroke="#c79a3a" stroke-width="1.1" stroke-linejoin="round"/><polygon points="3.4,21.7 3.4,21.7 7,21.6 7.8,21.5" fill="#412f18" stroke="#412f18" stroke-width="0.35" stroke-linejoin="round"/><polygon points="3.4,21.7 3.4,21.7 5.9,18 5.2,18" fill="#4c371c" stroke="#4c371c" stroke-width="0.35" stroke-linejoin="round"/><polygon points="3.4,21.7 3.4,21.7 7.8,21.5 7.8,20.4" fill="#5f4522" stroke="#5f4522" stroke-width="0.35" stroke-linejoin="round"/><polygon points="-21.1,3.3 -1.2,-9.5 -1.2,-8.2 -21.1,4.6" fill="#b1ada2" stroke="#c79a3a" stroke-width="1.1" stroke-linejoin="round"/><polygon points="3.4,21.7 3.4,21.7 7,19 5.9,18" fill="#836030" stroke="#836030" stroke-width="0.35" stroke-linejoin="round"/><polygon points="3.4,21.7 3.4,21.7 7.8,20.4 7,19" fill="#8f6a37" stroke="#8f6a37" stroke-width="0.35" stroke-linejoin="round"/><polygon points="25.1,-22.1 26.2,-21.9 38.3,-24.6 38.3,-24.6" fill="#b6b1a6" stroke="#b6b1a6" stroke-width="0.35" stroke-linejoin="round"/><polygon points="30.7,-15.8 30.7,-14.5 38.3,-24.6 38.3,-24.6" fill="#bdb9ad" stroke="#bdb9ad" stroke-width="0.35" stroke-linejoin="round"/><polygon points="26.2,-21.9 27.6,-20.9 38.3,-24.6 38.3,-24.6" fill="#e8e2d3" stroke="#e8e2d3" stroke-width="0.35" stroke-linejoin="round"/><polygon points="30.1,-17.6 30.7,-15.8 38.3,-24.6 38.3,-24.6" fill="#f4edde" stroke="#f4edde" stroke-width="0.35" stroke-linejoin="round"/><polygon points="27.6,-20.9 29,-19.4 38.3,-24.6 38.3,-24.6" fill="#fffff0" stroke="#fffff0" stroke-width="0.35" stroke-linejoin="round"/><polygon points="29,-19.4 30.1,-17.6 38.3,-24.6 38.3,-24.6" fill="#fffff9" stroke="#fffff9" stroke-width="0.35" stroke-linejoin="round"/><polygon points="8.9,-17.2 11.1,-16.6 26.2,-21.9 25.1,-22.1" fill="#b7b3a7" stroke="#b7b3a7" stroke-width="0.35" stroke-linejoin="round"/><polygon points="-9.5,13.8 9.6,26.5 17.3,21.6 10.4,1" fill="#f2ecdd" stroke="#c79a3a" stroke-width="1.1" stroke-linejoin="round"/><polygon points="21.7,-22.2 23,-21.3 27.6,-21.3 27.4,-21.5" fill="#3785b3" stroke="#3785b3" stroke-width="0.35" stroke-linejoin="round"/><polygon points="25.1,-18.3 25.1,-17.2 27.9,-20.5 27.9,-20.7" fill="#2f7299" stroke="#2f7299" stroke-width="0.35" stroke-linejoin="round"/><polygon points="23,-21.3 24.3,-19.8 27.8,-21 27.6,-21.3" fill="#3f98cc" stroke="#3f98cc" stroke-width="0.35" stroke-linejoin="round"/><polygon points="24.3,-19.8 25.1,-18.3 27.9,-20.7 27.8,-21" fill="#3f98cc" stroke="#3f98cc" stroke-width="0.35" stroke-linejoin="round"/><polygon points="19.9,-5 19.9,-2.8 30.7,-14.5 30.7,-15.8" fill="#bbb7ab" stroke="#bbb7ab" stroke-width="0.35" stroke-linejoin="round"/><polygon points="11.1,-16.6 13.8,-14.6 27.6,-20.9 26.2,-21.9" fill="#e7e1d3" stroke="#e7e1d3" stroke-width="0.35" stroke-linejoin="round"/><polygon points="9.6,27.8 -9.5,15.1 -9.5,13.8 9.6,26.5" fill="#64625c" stroke="#c79a3a" stroke-width="1.1" stroke-linejoin="round"/><polygon points="18.7,-8.2 19.9,-5 30.7,-15.8 30.1,-17.6" fill="#f6f0e0" stroke="#f6f0e0" stroke-width="0.35" stroke-linejoin="round"/><polygon points="13.8,-14.6 16.5,-11.6 29,-19.4 27.6,-20.9" fill="#fffff2" stroke="#fffff2" stroke-width="0.35" stroke-linejoin="round"/><polygon points="16.5,-11.6 18.7,-8.2 30.1,-17.6 29,-19.4" fill="#ffffff" stroke="#ffffff" stroke-width="0.35" stroke-linejoin="round"/><polygon points="7.2,-16.3 9.5,-15.7 11.1,-16.6 8.9,-17.2" fill="#a07d30" stroke="#a07d30" stroke-width="0.35" stroke-linejoin="round"/><polygon points="12,-17.8 13,-17.9 21.7,-22.2 20.9,-22.1" fill="#255978" stroke="#255978" stroke-width="0.35" stroke-linejoin="round"/><polygon points="17.3,22.9 9.6,27.8 9.6,26.5 17.3,21.6" fill="#b1ada2" stroke="#c79a3a" stroke-width="1.1" stroke-linejoin="round"/><polygon points="13,-17.9 14.6,-16.8 23,-21.3 21.7,-22.2" fill="#3786b4" stroke="#3786b4" stroke-width="0.35" stroke-linejoin="round"/><polygon points="17.1,-13.1 17.1,-11.9 25.1,-17.2 25.1,-18.3" fill="#2d6c91" stroke="#2d6c91" stroke-width="0.35" stroke-linejoin="round"/><polygon points="9.5,-15.7 12.3,-13.7 13.8,-14.6 11.1,-16.6" fill="#c99e3d" stroke="#c99e3d" stroke-width="0.35" stroke-linejoin="round"/><polygon points="18.5,-3.9 18.5,-1.7 19.9,-2.8 19.9,-5" fill="#a17e31" stroke="#a17e31" stroke-width="0.35" stroke-linejoin="round"/><polygon points="14.6,-16.8 16.1,-15 24.3,-19.8 23,-21.3" fill="#64bff4" stroke="#64bff4" stroke-width="0.35" stroke-linejoin="round"/><polygon points="16.1,-15 17.1,-13.1 25.1,-18.3 24.3,-19.8" fill="#6ec9fe" stroke="#6ec9fe" stroke-width="0.35" stroke-linejoin="round"/><polygon points="10.4,-11.8 10.5,-11.9 13,-17.9 12,-17.8" fill="#193d52" stroke="#193d52" stroke-width="0.35" stroke-linejoin="round"/><polygon points="10.4,-11.8 10.5,-11.9 10.7,-11.8 11,-11.5 11.1,-11.2 11.1,-10.9 11,-10.9 10.7,-11 10.5,-11.3 10.4,-11.6" fill="#193c51" stroke="#193c51" stroke-width="0.35" stroke-linejoin="round"/><polygon points="10.5,-11.9 10.7,-11.8 14.6,-16.8 13,-17.9" fill="#286283" stroke="#286283" stroke-width="0.35" stroke-linejoin="round"/><polygon points="11.1,-11.2 11.1,-10.9 17.1,-11.9 17.1,-13.1" fill="#22526d" stroke="#22526d" stroke-width="0.35" stroke-linejoin="round"/><polygon points="12.3,-13.7 15,-10.6 16.5,-11.6 13.8,-14.6" fill="#f3c256" stroke="#f3c256" stroke-width="0.35" stroke-linejoin="round"/><polygon points="17.3,-7.1 18.5,-3.9 19.9,-5 18.7,-8.2" fill="#dcad46" stroke="#dcad46" stroke-width="0.35" stroke-linejoin="round"/><polygon points="10.7,-11.8 11,-11.5 16.1,-15 14.6,-16.8" fill="#31749c" stroke="#31749c" stroke-width="0.35" stroke-linejoin="round"/><polygon points="11,-11.5 11.1,-11.2 17.1,-13.1 16.1,-15" fill="#307299" stroke="#307299" stroke-width="0.35" stroke-linejoin="round"/><polygon points="-13.7,-5 -11,-4.3 9.5,-15.7 7.2,-16.3" fill="#b4b0a4" stroke="#b4b0a4" stroke-width="0.35" stroke-linejoin="round"/><polygon points="15,-10.6 17.3,-7.1 18.7,-8.2 16.5,-11.6" fill="#ffed7d" stroke="#ffed7d" stroke-width="0.35" stroke-linejoin="round"/><polygon points="-11,-4.3 -7.7,-1.8 12.3,-13.7 9.5,-15.7" fill="#e3decf" stroke="#e3decf" stroke-width="0.35" stroke-linejoin="round"/><polygon points="-0.1,9.8 -0.1,12.5 18.5,-1.7 18.5,-3.9" fill="#b5b0a5" stroke="#b5b0a5" stroke-width="0.35" stroke-linejoin="round"/><polygon points="-7.7,-1.8 -4.3,1.8 15,-10.6 12.3,-13.7" fill="#fffff1" stroke="#fffff1" stroke-width="0.35" stroke-linejoin="round"/><polygon points="-1.6,6 -0.1,9.8 18.5,-3.9 17.3,-7.1" fill="#f5efdf" stroke="#f5efdf" stroke-width="0.35" stroke-linejoin="round"/><polygon points="-15.2,-4 -12.5,-3.3 -11,-4.3 -13.7,-5" fill="#9e7b30" stroke="#9e7b30" stroke-width="0.35" stroke-linejoin="round"/><polygon points="-1.7,13.5 -3.2,14.6 -1.6,13.6 -0.1,12.5" fill="#59461b" stroke="#59461b" stroke-width="0.35" stroke-linejoin="round"/><polygon points="-4.3,1.8 -1.6,6 17.3,-7.1 15,-10.6" fill="#ffffff" stroke="#ffffff" stroke-width="0.35" stroke-linejoin="round"/><polygon points="-12.5,-3.3 -9.2,-0.8 -7.7,-1.8 -11,-4.3" fill="#c89c3d" stroke="#c89c3d" stroke-width="0.35" stroke-linejoin="round"/><polygon points="-1.7,10.8 -1.7,13.5 -0.1,12.5 -0.1,9.8" fill="#9d7b30" stroke="#9d7b30" stroke-width="0.35" stroke-linejoin="round"/><polygon points="-30,6.8 -27.6,7.4 -12.5,-3.3 -15.2,-4" fill="#a5a094" stroke="#a5a094" stroke-width="0.35" stroke-linejoin="round"/><polygon points="-17.6,23 -19,24.1 -3.2,14.6 -1.7,13.5" fill="#5f5c55" stroke="#5f5c55" stroke-width="0.35" stroke-linejoin="round"/><polygon points="-36.3,13.5 -35.2,12.8 -30,6.8 -31.4,7.9" fill="#64625c" stroke="#64625c" stroke-width="0.35" stroke-linejoin="round"/><polygon points="-9.2,-0.8 -5.8,2.8 -4.3,1.8 -7.7,-1.8" fill="#f2c256" stroke="#f2c256" stroke-width="0.35" stroke-linejoin="round"/><polygon points="-3.2,7 -1.7,10.8 -0.1,9.8 -1.6,6" fill="#dbad47" stroke="#dbad47" stroke-width="0.35" stroke-linejoin="round"/><polygon points="-5.8,2.8 -3.2,7 -1.6,6 -4.3,1.8" fill="#fff283" stroke="#fff283" stroke-width="0.35" stroke-linejoin="round"/><polygon points="-40.7,15.2 -39.6,14.7 -34.1,12.1 -35,12.6" fill="#513b1e" stroke="#513b1e" stroke-width="0.35" stroke-linejoin="round"/><polygon points="-27.6,7.4 -24.5,9.7 -9.2,-0.8 -12.5,-3.3" fill="#d2ccbd" stroke="#d2ccbd" stroke-width="0.35" stroke-linejoin="round"/><polygon points="-17.6,20.4 -17.6,23 -1.7,13.5 -1.7,10.8" fill="#a5a195" stroke="#a5a195" stroke-width="0.35" stroke-linejoin="round"/><polygon points="-34.8,20.6 -34.8,22.5 -30.2,18.5 -30.2,17" fill="#76562b" stroke="#76562b" stroke-width="0.35" stroke-linejoin="round"/><polygon points="-36.3,13.5 -35.2,12.8 -33.2,13.4 -30.6,15.2 -28.1,17.9 -26.1,21 -25,23.8 -25,25.8 -26.1,26.6 -28.1,26 -30.6,24.2 -33.2,21.5 -35.2,18.4 -36.3,15.5" fill="#64625c" stroke="#64625c" stroke-width="0.35" stroke-linejoin="round"/><polygon points="-35.2,12.8 -33.2,13.4 -27.6,7.4 -30,6.8" fill="#a09c92" stroke="#a09c92" stroke-width="0.35" stroke-linejoin="round"/><polygon points="-42.6,16.1 -41.4,15.5 -39.5,16.6 -37.5,19.1 -36.3,21.8 -36.3,23.9 -37.5,24.5 -39.5,23.3 -41.4,20.9 -42.6,18.1" fill="url(#empire-bomber-glow)"/><polygon points="-25,25.8 -26.1,26.6 -19,24.1 -17.6,23" fill="#64625c" stroke="#64625c" stroke-width="0.35" stroke-linejoin="round"/><polygon points="-39.6,14.7 -37.8,15.8 -32.6,13 -34.1,12.1" fill="#8b6532" stroke="#8b6532" stroke-width="0.35" stroke-linejoin="round"/><polygon points="-24.5,9.7 -21.4,13 -5.8,2.8 -9.2,-0.8" fill="#f6efde" stroke="#f6efde" stroke-width="0.35" stroke-linejoin="round"/><polygon points="-19,16.9 -17.6,20.4 -1.7,10.8 -3.2,7" fill="#e2dccb" stroke="#e2dccb" stroke-width="0.35" stroke-linejoin="round"/><polygon points="-35.9,18 -34.8,20.6 -30.2,17 -31.1,14.9" fill="#a77b41" stroke="#a77b41" stroke-width="0.35" stroke-linejoin="round"/><polygon points="-37.8,15.8 -35.9,18 -31.1,14.9 -32.6,13" fill="#bb8d4f" stroke="#bb8d4f" stroke-width="0.35" stroke-linejoin="round"/><polygon points="-21.4,13 -19,16.9 -3.2,7 -5.8,2.8" fill="#fffff9" stroke="#fffff9" stroke-width="0.35" stroke-linejoin="round"/><polygon points="-36.3,21.8 -36.3,23.9 -34.8,22.5 -34.8,20.6" fill="#77562b" stroke="#77562b" stroke-width="0.35" stroke-linejoin="round"/><polygon points="-41.4,15.5 -39.5,16.6 -37.8,15.8 -39.6,14.7" fill="#8b6533" stroke="#8b6533" stroke-width="0.35" stroke-linejoin="round"/><polygon points="-33.2,13.4 -30.6,15.2 -24.5,9.7 -27.6,7.4" fill="#cdc8bb" stroke="#cdc8bb" stroke-width="0.35" stroke-linejoin="round"/><polygon points="-25,23.8 -25,25.8 -17.6,23 -17.6,20.4" fill="#a4a095" stroke="#a4a095" stroke-width="0.35" stroke-linejoin="round"/><polygon points="-33.7,21.6 -32.6,21.1 -27.1,18.5 -28,18.9" fill="#513b1e" stroke="#513b1e" stroke-width="0.35" stroke-linejoin="round"/><polygon points="-37.5,19.1 -36.3,21.8 -34.8,20.6 -35.9,18" fill="#a77b40" stroke="#a77b40" stroke-width="0.35" stroke-linejoin="round"/><polygon points="-39.5,16.6 -37.5,19.1 -35.9,18 -37.8,15.8" fill="#b98b4d" stroke="#b98b4d" stroke-width="0.35" stroke-linejoin="round"/><polygon points="-18,-0.1 -27.9,-6.2 -27.2,-5.6 -17.3,0.5" fill="#c59a3b" stroke="#c59a3b" stroke-width="0.35" stroke-linejoin="round"/><polygon points="-27.9,26.9 -27.9,28.8 -23.2,24.9 -23.2,23.3" fill="#76562b" stroke="#76562b" stroke-width="0.35" stroke-linejoin="round"/><polygon points="-30.6,15.2 -28.1,17.9 -21.4,13 -24.5,9.7" fill="#ede7d9" stroke="#ede7d9" stroke-width="0.35" stroke-linejoin="round"/><polygon points="-26.1,21 -25,23.8 -17.6,20.4 -19,16.9" fill="#dfd9cc" stroke="#dfd9cc" stroke-width="0.35" stroke-linejoin="round"/><polygon points="-35.7,22.4 -34.5,21.8 -32.5,23 -30.6,25.4 -29.4,28.2 -29.4,30.2 -30.6,30.8 -32.5,29.6 -34.5,27.2 -35.7,24.4" fill="url(#empire-bomber-glow)"/><polygon points="-32.6,21.1 -30.8,22.1 -25.6,19.4 -27.1,18.5" fill="#8b6532" stroke="#8b6532" stroke-width="0.35" stroke-linejoin="round"/><polygon points="-28.1,17.9 -26.1,21 -19,16.9 -21.4,13" fill="#fffdee" stroke="#fffdee" stroke-width="0.35" stroke-linejoin="round"/><polygon points="-29,24.4 -27.9,26.9 -23.2,23.3 -24.2,21.2" fill="#a77b41" stroke="#a77b41" stroke-width="0.35" stroke-linejoin="round"/><polygon points="-30.8,22.1 -29,24.4 -24.2,21.2 -25.6,19.4" fill="#bb8d4f" stroke="#bb8d4f" stroke-width="0.35" stroke-linejoin="round"/><polygon points="-29.4,28.2 -29.4,30.2 -27.9,28.8 -27.9,26.9" fill="#77562b" stroke="#77562b" stroke-width="0.35" stroke-linejoin="round"/><polygon points="-34.5,21.8 -32.5,23 -30.8,22.1 -32.6,21.1" fill="#8b6533" stroke="#8b6533" stroke-width="0.35" stroke-linejoin="round"/><polygon points="-30.6,25.4 -29.4,28.2 -27.9,26.9 -29,24.4" fill="#a77b40" stroke="#a77b40" stroke-width="0.35" stroke-linejoin="round"/><polygon points="-32.5,23 -30.6,25.4 -29,24.4 -30.8,22.1" fill="#b98b4d" stroke="#b98b4d" stroke-width="0.35" stroke-linejoin="round"/><polygon points="-34,-2.3 -31.8,8.8 -31.1,9.4 -33.4,-1.7" fill="#59461b" stroke="#59461b" stroke-width="0.35" stroke-linejoin="round"/><polygon points="-10.3,6.9 -15.7,4.9 -15,5.5 -9.6,7.5" fill="#c59a3b" stroke="#c59a3b" stroke-width="0.35" stroke-linejoin="round"/><polygon points="-27.9,-6.2 -34,-2.3 -33.4,-1.7 -27.2,-5.6" fill="#d9ab44" stroke="#d9ab44" stroke-width="0.35" stroke-linejoin="round"/><polygon points="-24,15.8 -10.3,6.9 -15.7,4.9 -21.8,8.9" fill="#8d8a81" stroke="#c79a3a" stroke-width="1.1" stroke-linejoin="round"/><polygon points="-23.4,16.4 -9.6,7.5 -15,5.5 -21.1,9.5" fill="#8d8a81" stroke="#c79a3a" stroke-width="1.1" stroke-linejoin="round"/><polygon points="-21.8,8.9 -24,15.8 -23.4,16.4 -21.1,9.5" fill="#59461b" stroke="#59461b" stroke-width="0.35" stroke-linejoin="round"/><polygon points="-15.7,4.9 -21.8,8.9 -21.1,9.5 -15,5.5" fill="#d9ab44" stroke="#d9ab44" stroke-width="0.35" stroke-linejoin="round"/></g>
</defs>
<use href="#empire-bomber-craft" transform="translate(-44 34) scale(0.9)"/><use href="#empire-bomber-craft" transform="translate(0 0) scale(1)"/>
</svg>
